inDegrees=no
num_controls=7
num_derivatives=13
num_iterations=133
num_multipliers=7
num_parameters=0
num_slacks=7
num_states=26
objective=5.592012
objective_accelerations=0.693034
objective_balance=0.037110
objective_effort=0.252610
objective_height=4.497661
objective_ligament=0.111596
solver_duration=1484.791638
status=Solve_Succeeded
success=true
DataType=double
version=3
OpenSimVersion=4.4-2022-07-23-0e9fedc
endheader
time	/jointset/ground_pelvis/pelvis_tilt/value	/jointset/ground_pelvis/pelvis_tx/value	/jointset/ground_pelvis/pelvis_ty/value	/jointset/hip_l/hip_flexion_l/value	/jointset/hip_l/hip_adduction_l/value	/jointset/hip_l/hip_rotation_l/value	/jointset/back/lumbar_extension/value	/jointset/patellofemoral_l/patellar_flexion_l/value	/jointset/knee_l/knee_flexion_l/value	/jointset/knee_l/knee_adduction_l/value	/jointset/knee_l/knee_rotation_l/value	/jointset/ankle_l/ankle_angle_l/value	/jointset/subtalar_l/subtalar_angle_l/value	/jointset/ground_pelvis/pelvis_tilt/speed	/jointset/ground_pelvis/pelvis_tx/speed	/jointset/ground_pelvis/pelvis_ty/speed	/jointset/hip_l/hip_flexion_l/speed	/jointset/hip_l/hip_adduction_l/speed	/jointset/hip_l/hip_rotation_l/speed	/jointset/back/lumbar_extension/speed	/jointset/patellofemoral_l/patellar_flexion_l/speed	/jointset/knee_l/knee_flexion_l/speed	/jointset/knee_l/knee_adduction_l/speed	/jointset/knee_l/knee_rotation_l/speed	/jointset/ankle_l/ankle_angle_l/speed	/jointset/subtalar_l/subtalar_angle_l/speed	/forceset/tau_hip_flexion_l	/forceset/tau_hip_adduction_l	/forceset/tau_hip_rotation_l	/forceset/tau_knee_flexion_l	/forceset/tau_ankle_angle_l	/forceset/tau_subtalar_angle_l	/forceset/tau_lumbar_extension	lambda_cid13_p0	lambda_cid13_p1	lambda_cid13_p2	lambda_cid13_p3	lambda_cid13_p4	lambda_cid13_p5	lambda_cid14_p0	/jointset/ground_pelvis/pelvis_tilt/accel	/jointset/ground_pelvis/pelvis_tx/accel	/jointset/ground_pelvis/pelvis_ty/accel	/jointset/hip_l/hip_flexion_l/accel	/jointset/hip_l/hip_adduction_l/accel	/jointset/hip_l/hip_rotation_l/accel	/jointset/back/lumbar_extension/accel	/jointset/patellofemoral_l/patellar_flexion_l/accel	/jointset/knee_l/knee_flexion_l/accel	/jointset/knee_l/knee_adduction_l/accel	/jointset/knee_l/knee_rotation_l/accel	/jointset/ankle_l/ankle_angle_l/accel	/jointset/subtalar_l/subtalar_angle_l/accel	gamma_cid13_p0	gamma_cid13_p1	gamma_cid13_p2	gamma_cid13_p3	gamma_cid13_p4	gamma_cid13_p5	gamma_cid14_p0
1.5	-0.2727737073839883	0.03316291014953733	0.7713435903898812	0.9547257712169659	-0.4444205743263495	-0.2163122975820183	-0.2165711851581846	0.8598401533719914	0.8598401533720076	-0.1141201399275597	-0.1535541789814136	0.2434173000439106	0.03803522253054252	0.4256901635877172	0.1442983248065355	0.5054766402120091	-2.063002883254236	0.2398866253461946	-0.7613610527812783	0.3340348997821321	-2.162438613999391	-2.162438613999325	-0.1608797258656426	0.1016049071717981	-0.7120364479407503	-0.1284927752829514	-0.1281869347764329	0.03857681859845181	-0.01164547541223146	-0.2242325794306176	-0.009797999007953223	0.03304622737440649	0.1366800853582279	-34.76115121234954	-12.09875973192665	5.971402448972892	-3.466739358097906	-520.0159692064068	-62.74015993502705	-22.48957222708206	0.3996984636787045	0.4992148127536064	-0.5377311226203086	-1.002222503704612	0.6761527397040829	-0.2736382683705006	1.254911333133276	-1.437464491636132	-1.437464491636125	0.07995289707786318	0.1613339092518629	-0.64113772758446	0.5371311358180041	6.228218169197282e-07	-5.699647197254645e-08	-4.327400513271896e-06	-2.749954036474731e-07	8.668779614644857e-07	6.422308282369302e-07	5.2924731953663e-07
1.51	-0.2684967477125959	0.03463068871088209	0.7763704317337052	0.9340471636231442	-0.4419893847889836	-0.223934896280593	-0.2131693004776732	0.8381462751638522	0.8381462751638902	-0.1157304092865685	-0.1525292151240479	0.2362653466262006	0.03677520808873607	0.42964006970108	0.1492346456424974	0.4997815698130423	-2.07241750947769	0.2463294348776743	-0.7630511563412341	0.3462898386813293	-2.1760280016147	-2.176028001614664	-0.1611694869663819	0.1033849780895013	-0.7182487707759775	-0.1234903127661212	-0.1235481872843587	0.03732450880722615	-0.01153847733197825	-0.22084379728511	-0.00778943045496488	0.03279668405558883	0.1327224207868963	-33.9407218857243	-12.16128148568561	6.012491394632495	-3.60327325965398	-516.4195751707738	-62.85562378654242	-23.50035756227708	0.3834684849965772	0.4873853680827599	-0.6017272965902853	-0.86581016604782	0.6256493418488346	-0.1000460074217479	1.20295552271988	-1.27342952303239	-1.273429523036996	-0.0828663949362676	0.1851029433039826	-0.5954647953232133	0.4852450580200114	6.440096119001498e-07	8.659829961942071e-08	-4.266978363645333e-06	-2.389544109517984e-07	8.772311867359156e-07	7.849974886460296e-07	5.347876971722435e-07
1.52	-0.2641821226200965	0.03614713941039954	0.7813370559139287	0.9132834642702176	-0.4394943062999057	-0.2315710659362971	-0.2096464323372856	0.8163257523542687	0.8163257523542925	-0.1173434614128727	-0.1514866987054017	0.2290544329333716	0.03556590652177882	0.4332232478076882	0.1540327524410725	0.4934332074918888	-2.080021235076429	0.252664415688316	-0.7640752442057328	0.3582315917567994	-2.187767534292175	-2.187767534292169	-0.1614362793185761	0.1051154194181738	-0.7238285029644609	-0.1183502003131143	-0.1189094397922804	0.03607219901597308	-0.01143147925216549	-0.2174550151395795	-0.005780861901983451	0.03254714073673742	0.1287647562155836	-33.1215640551851	-12.22398292947692	6.05407167870631	-3.789850588298853	-512.8703220460934	-63.04046378034997	-24.51082254410026	0.3263528623279757	0.4715720052760966	-0.6683895070576715	-0.6400423787616052	0.6545869955365502	-0.1404351292790283	1.192274168387951	-1.06749350406944	-1.067493504069428	0.0845466467869473	0.1514079914457453	-0.5146195982358478	0.5646611230532675	6.657749556618609e-07	2.610532631924584e-07	-4.184589882247335e-06	-1.984238270098854e-07	8.917222413172763e-07	9.319109720077836e-07	5.408201350646952e-07
1.53	-0.2598334323911062	0.03771086562703802	0.7862370149082658	0.8924525938050175	-0.4369365561021492	-0.239214898793674	-0.2060059130914327	0.7943971518594876	0.7943971518594961	-0.1189586820249635	-0.1504275870293774	0.2217909668662653	0.0344085992397925	0.4364488115198664	0.1586872737328892	0.4864550360679219	-2.085844293736239	0.2588574323898042	-0.7645946853135904	0.3698116654096187	-2.197624037264329	-2.197624037264301	-0.1615929601791334	0.1066934357711131	-0.7287446359903065	-0.1130905188539292	-0.1141737617305185	0.03464472555585805	-0.01126061984257646	-0.2143932776824887	-0.003428255300007967	0.03208511715408383	0.1247271745044633	-32.21105390191276	-12.19278040708822	6.060553066554963	-3.978878620435029	-509.4780534285878	-63.0889605663919	-25.51928165546691	0.3108393600536442	0.4585838434245594	-0.7278801119862124	-0.5070574563521937	0.597939870867167	0.007336261247517615	1.131785163347955	-0.8955597607360313	-0.8955597607326072	-0.06361972934854349	0.1582158268742514	-0.4620802438670785	0.510110601619634	6.881539450036922e-07	4.682971807453832e-07	-4.078862173342189e-06	-1.531230523688442e-07	9.106097395404383e-07	1.083230454756733e-06	5.473753869800375e-07
1.54	-0.255454450278107	0.03932037538705278	0.7910641223579792	0.8715727687838751	-0.4343176195646927	-0.2468609190895829	-0.2022514108691248	0.772379820121596	0.7723798201215843	-0.1205750383010337	-0.1493532517158914	0.2144819454510775	0.03330458656125182	0.4392816246076715	0.1631894611163268	0.4788628985671844	-2.089812146266509	0.2649016836277894	-0.7645127319099864	0.3810281870471942	-2.205513782914385	-2.205513782914334	-0.1616634121145517	0.108160146910297	-0.7329395725804807	-0.1076912796240071	-0.1094380836687563	0.03321725209570122	-0.011089760432954	-0.2113315402254063	-0.001075648698049011	0.03162309357136471	0.1206895927933665	-31.30030710754774	-12.16268852209629	6.068435651002111	-4.221735383183145	-506.1135066507284	-63.20569600361286	-26.52483470058647	0.2478027374535633	0.4411052236000935	-0.7911827224117927	-0.2690011528536413	0.6248339028359704	-0.02015622698667418	1.119563765339325	-0.6741420396497386	-0.6741420396497401	0.1017924318147922	0.1291469486946914	-0.3703803111017797	0.5925726772005691	7.014540387447515e-07	6.450993398145459e-07	-3.959047608457566e-06	-1.133220415482186e-07	9.231590581800212e-07	1.208787691466033e-06	5.486184025560561e-07
1.55	-0.2510490857528802	0.04097405422868295	0.7958123579303411	0.8506623936834828	-0.4316390856020086	-0.2545031277965992	-0.1983867753685875	0.7502932448864589	0.7502932448864646	-0.12219182363883	-0.1482646721357299	0.2071344471918272	0.0322550754553854	0.4417219176720513	0.1675115730509298	0.4706910270276999	-2.091953698553666	0.2707657998171775	-0.7637787480192366	0.3918228273737371	-2.211480647733473	-2.211480647733457	-0.1617273994735643	0.1095809982449391	-0.7364489245568636	-0.1022106559616206	-0.1047580516505809	0.03145643631363417	-0.01084506499370002	-0.2083543640012889	0.0009321428593643822	0.03122028755464078	0.1166723664237015	-30.52024797052929	-12.13756764011718	6.079546751598096	-4.268307046748956	-503.0385344641048	-63.46335261218761	-27.52731411600803	0.2318077423173773	0.4225418008322188	-0.8439814372687025	-0.140270682456529	0.5617427064106922	0.1432507866102608	1.048001313590578	-0.5099744524347939	-0.5099744524402453	-0.06559791271421861	0.1516332592398606	-0.3245057191520513	0.5261499513424275	7.04293665815357e-07	7.868272988915497e-07	-3.823002535596589e-06	-7.98577151293757e-08	9.284056916472199e-07	1.304662340347041e-06	5.437407980019847e-07
1.56	-0.2466213852667225	0.0426699097141476	0.8004761163737979	0.8297398953770667	-0.4289030020315428	-0.2621333816468157	-0.1944164760353258	0.7281565978532639	0.7281565978532615	-0.1238102695688322	-0.1471612682355089	0.1997551967971637	0.03126043913426001	0.4437488167919028	0.1716247898832216	0.4619674727861653	-2.092236787473218	0.2764116051833889	-0.7621217605483086	0.4021609535914251	-2.21552814252842	-2.215528142528441	-0.1619955305507729	0.1111250109152099	-0.7392899996630689	-0.0967163226758468	-0.1000780196323883	0.02969562053154065	-0.01060036955469864	-0.2053771877771573	0.002939934416768439	0.03081748153788129	0.1126551400540695	-29.73829432241209	-12.11311295304865	6.091149267841532	-4.372972363376497	-499.9688655398278	-63.78148649208772	-28.52742049675889	0.1651239485481019	0.3993262031376974	-0.9015192628218489	0.1026915206673941	0.5811717382006781	0.1644444890490263	1.028260943568464	-0.2902680348217402	-0.2902680348217403	0.06096368817564318	0.1537792158204476	-0.2367249370664578	0.5953146018779196	6.381404492743763e-07	1.224523326110879e-06	-3.09935620023137e-06	4.623890901384059e-08	8.255964585742349e-07	1.323491996098844e-06	5.022790858250562e-07
